<?xml version="1.0" standalone="no"?>
<!DOCTYPE svg PUBLIC "-//W3C//DTD SVG 1.1//EN" "http://www.w3.org/Graphics/SVG/1.1/DTD/svg11.dtd" >
<svg>
<metadata>
Created by FontForge 20110222 at Mon Mar  7 03:42:20 2011
 By www-data
v1.3 Created by ShyWedge, 1999.  [http://welcome.to/ShyFonts]
</metadata>
<defs>
<font id="DistantGalaxy" horiz-adv-x="650" >
  <font-face 
    font-family="Distant Galaxy"
    font-weight="400"
    font-stretch="normal"
    units-per-em="1000"
    panose-1="2 0 5 3 0 0 0 0 0 0"
    ascent="800"
    descent="-200"
    x-height="650"
    cap-height="650"
    bbox="-70 -200 1020 750"
    underline-thickness="20"
    underline-position="-143"
    unicode-range="U+0020-201E"
  />
    <missing-glyph />
    <glyph glyph-name="space" unicode=" " horiz-adv-x="400" 
 />
    <glyph glyph-name="exclam" unicode="!" horiz-adv-x="250" 
d="M200 650l-20 -400h-160l-20 400h200zM200 100c0 -55 -45 -100 -100 -100c-56 0 -100 44 -100 100c0 55 45 100 100 100c54 0 100 -46 100 -100z" />
    <glyph glyph-name="quotedbl" unicode="&#x22;" horiz-adv-x="470" 
d="M420 550c0 -112 -88 -200 -200 -200v50c56 0 100 22 100 50c-56 0 -100 44 -100 100c0 55 45 100 100 100c54 0 100 -46 100 -100zM200 550c0 -112 -88 -200 -200 -200v50c56 0 100 22 100 50c-56 0 -100 44 -100 100c0 55 45 100 100 100c54 0 100 -46 100 -100z" />
    <glyph glyph-name="numbersign" unicode="#" horiz-adv-x="240" 
d="M190 650l-50 -80v-40h20v-20h-10v-20h10v-20h-10v-20h10v-20h-20v-50h10v-130l10 -20v-210l-55 -20l-55 20v360h10v50h-20v20h10v20h-10v20h10v20h-10v20h20v40l-50 80h180z" />
    <glyph glyph-name="quotesingle" unicode="'" horiz-adv-x="250" 
d="M200 550c0 -112 -88 -200 -200 -200v50c56 0 100 22 100 50c-56 0 -100 44 -100 100c0 55 45 100 100 100c54 0 100 -46 100 -100z" />
    <glyph glyph-name="parenleft" unicode="(" horiz-adv-x="400" 
d="M300 -100h-50c-142 118 -200 242 -200 425s59 308 200 425h50c-122 -127 -170 -247 -170 -425c0 -181 46 -298 170 -425z" />
    <glyph glyph-name="parenright" unicode=")" horiz-adv-x="400" 
d="M300 325c0 -183 -58 -307 -200 -425h-50c112 115 170 230 170 425c0 178 -48 298 -170 425h50c141 -117 200 -242 200 -425z" />
    <glyph glyph-name="asterisk" unicode="*" horiz-adv-x="700" 
d="M650 325c0 -180 -145 -325 -325 -325c-182 0 -325 143 -325 325c0 180 145 325 325 325c179 0 325 -146 325 -325zM555 493c-50 68 -117 106 -200 115v-20c18 -2 36 -6 54 -12l-10 -28c32 -11 60 -27 85 -50l2 -1l20 21c11 -11 22 -23 32 -36zM610 324
c0 42 -8 79 -25 117l-17 -10c7 -17 13 -35 16 -53l-29 -6c3 -15 5 -31 5 -47c0 -1 -5 -47 -6 -53l29 -7c-3 -16 -8 -31 -15 -46l18 -10c16 37 24 75 24 115zM295 588v21c-83 -9 -150 -47 -200 -116l17 -10c11 15 24 28 37 40l20 -22c21 18 72 42 88 49l-9 29c15 5 31 8 47 9
zM510 387c-8 23 -20 44 -36 63l-69 -58c-15 19 -35 31 -59 36l18 88c-13 3 -26 4 -39 4c-11 0 -23 -1 -34 -3l16 -88c-24 -5 -44 -16 -61 -35l-67 60c-17 -19 -29 -39 -37 -62l84 -31c-4 -12 -6 -24 -6 -37c0 -11 2 -22 5 -33l-85 -28c8 -23 20 -44 36 -63l68 57
c16 -19 36 -30 60 -35l-18 -88c13 -3 26 -4 39 -4c11 0 23 1 34 3l-16 89c24 4 44 15 61 34l67 -60c17 19 29 39 37 62l-84 31c5 13 6 22 6 36c0 11 -2 22 -6 33zM555 157l-17 10c-11 -15 -23 -28 -37 -40l-20 22c-25 -22 -74 -49 -88 -49l9 -28c-15 -5 -31 -8 -47 -10v-20
c84 9 151 47 200 115zM96 378l-29 7c4 16 9 31 15 46l-17 10c-17 -37 -25 -76 -25 -117c0 -40 8 -78 24 -115l18 10c-7 17 -13 35 -17 53l30 6c-3 15 -5 31 -5 47c3 20 6 46 6 53zM295 41v21c-18 2 -36 6 -54 11l10 29c-32 11 -61 28 -86 51l-21 -22c-12 11 -23 23 -32 36
l-18 -10c50 -69 117 -107 201 -116z" />
    <glyph glyph-name="comma" unicode="," horiz-adv-x="250" 
d="M200 100c0 -111 -89 -200 -200 -200v50c55 0 100 23 100 50c-56 0 -100 44 -100 100c0 55 45 100 100 100c54 0 100 -46 100 -100z" />
    <glyph glyph-name="hyphen" unicode="-" horiz-adv-x="450" 
d="M350 275h-300v100h300v-100z" />
    <glyph glyph-name="period" unicode="." horiz-adv-x="250" 
d="M200 100c0 -55 -45 -100 -100 -100c-56 0 -100 44 -100 100c0 55 45 100 100 100c54 0 100 -46 100 -100z" />
    <glyph glyph-name="zero" unicode="0" horiz-adv-x="600" 
d="M550 200c0 -112 -88 -200 -200 -200h-150c-112 0 -200 88 -200 200v250c0 112 88 200 200 200h150c111 0 200 -89 200 -200v-250zM350 230v190c0 27 -23 50 -50 50h-50c-28 0 -50 -22 -50 -50v-190c0 -29 21 -50 50 -50h50c28 0 50 22 50 50z" />
    <glyph glyph-name="one" unicode="1" horiz-adv-x="300" 
d="M250 0h-200v450h-50v200h250v-650z" />
    <glyph glyph-name="two" unicode="2" horiz-adv-x="600" 
d="M550 0h-550v180c0 95 88 170 200 170c83 0 150 21 150 50c0 37 -8 70 -50 70h-50c-43 0 -50 -32 -50 -70h-200c0 102 8 141 58 191c39 39 87 59 142 59h150c111 0 200 -89 200 -200v-70c0 -94 -89 -170 -200 -170c-55 0 -100 -13 -100 -30h300v-180z" />
    <glyph glyph-name="three" unicode="3" horiz-adv-x="600" 
d="M550 200c0 -112 -88 -200 -200 -200h-150c-112 0 -200 88 -200 200v50h200c0 -49 13 -70 50 -70h50c28 0 50 22 50 50c0 27 -23 50 -50 50h-25v90h25c28 0 50 22 50 50c0 27 -23 50 -50 50h-50c-43 0 -50 -32 -50 -70h-200c0 102 8 141 58 191c39 39 87 59 142 59h150
c111 0 200 -89 200 -200c0 -59 -8 -79 -50 -125c42 -46 50 -66 50 -125z" />
    <glyph glyph-name="four" unicode="4" horiz-adv-x="600" 
d="M550 100h-50v-100h-200v100h-300v160l200 390h300v-390h50v-160zM300 260v220l-100 -220h100z" />
    <glyph glyph-name="five" unicode="5" horiz-adv-x="600" 
d="M550 200c0 -112 -88 -200 -200 -200h-150c-112 0 -200 88 -200 200v30h200c0 -29 21 -50 50 -50h50c28 0 50 22 50 50v50c0 27 -23 50 -50 50h-50c-28 0 -50 -22 -50 -50h-200l50 370h480v-200h-315l-15 -99c0 29 59 49 150 49c111 0 200 -71 200 -160v-40z" />
    <glyph glyph-name="six" unicode="6" horiz-adv-x="600" 
d="M350 0h-150c-112 0 -200 88 -200 200v250c0 112 88 200 200 200h150c111 0 200 -89 200 -200v-30h-200c0 27 -23 50 -50 50h-50c-28 0 -50 -22 -50 -50v-89c0 29 59 49 150 49c111 0 200 -71 200 -160c0 -136 -83 -220 -200 -220zM350 230v30c0 27 -23 50 -50 50h-50
c-28 0 -50 -22 -50 -50v-30c0 -29 21 -50 50 -50h50c28 0 50 22 50 50z" />
    <glyph glyph-name="seven" unicode="7" horiz-adv-x="600" 
d="M550 450c-165 -124 -250 -202 -250 -450h-200c0 148 11 206 60 305c35 71 74 119 115 145h-275v200h550v-200z" />
    <glyph glyph-name="eight" unicode="8" horiz-adv-x="600" 
d="M550 200c0 -112 -88 -200 -200 -200h-150c-112 0 -200 88 -200 200c0 59 8 79 50 125c-42 46 -50 66 -50 125c0 112 88 200 200 200h150c111 0 200 -89 200 -200c0 -59 -8 -79 -50 -125c42 -46 50 -66 50 -125zM350 420c0 27 -23 50 -50 50h-50c-28 0 -50 -22 -50 -50
c0 -29 21 -50 50 -50h50c28 0 50 22 50 50zM350 230c0 27 -23 50 -50 50h-50c-28 0 -50 -22 -50 -50c0 -29 21 -50 50 -50h50c28 0 50 22 50 50z" />
    <glyph glyph-name="nine" unicode="9" horiz-adv-x="600" 
d="M550 200c0 -112 -88 -200 -200 -200h-150c-112 0 -200 88 -200 200v30h200c0 -29 21 -50 50 -50h50c28 0 50 22 50 50v89c0 -31 -58 -49 -150 -49c-112 0 -200 71 -200 160c0 76 15 118 58 161c39 39 87 59 142 59h150c111 0 200 -89 200 -200v-250zM350 390v30
c0 27 -23 50 -50 50h-50c-28 0 -50 -22 -50 -50v-30c0 -29 21 -50 50 -50h50c28 0 50 22 50 50z" />
    <glyph glyph-name="colon" unicode=":" horiz-adv-x="250" 
d="M200 450c0 -55 -45 -100 -100 -100c-56 0 -100 44 -100 100c0 55 45 100 100 100c54 0 100 -46 100 -100zM200 100c0 -55 -45 -100 -100 -100c-56 0 -100 44 -100 100c0 55 45 100 100 100c54 0 100 -46 100 -100z" />
    <glyph glyph-name="semicolon" unicode=";" horiz-adv-x="250" 
d="M200 450c0 -55 -45 -100 -100 -100c-56 0 -100 44 -100 100c0 55 45 100 100 100c54 0 100 -46 100 -100zM200 100c0 -111 -89 -200 -200 -200v50c55 0 100 23 100 50c-56 0 -100 44 -100 100c0 55 45 100 100 100c54 0 100 -46 100 -100z" />
    <glyph glyph-name="less" unicode="&#x3c;" horiz-adv-x="250" 
d="M270 0h-340v200h340v-200z" />
    <glyph glyph-name="greater" unicode="&#x3e;" horiz-adv-x="250" 
d="M270 450h-340v200h340v-200z" />
    <glyph glyph-name="question" unicode="?" horiz-adv-x="550" 
d="M330 300c-28 0 -50 -22 -50 -50h-160c0 59 9 83 38 112c25 25 56 38 92 38c43 0 50 32 50 70c0 27 -23 50 -50 50c-28 0 -50 -22 -50 -50v-40h-200c0 76 15 118 58 161c39 39 87 59 142 59h100c111 0 200 -89 200 -200c0 -52 -24 -150 -170 -150zM300 100
c0 -55 -45 -100 -100 -100c-56 0 -100 44 -100 100c0 55 45 100 100 100c54 0 100 -46 100 -100z" />
    <glyph glyph-name="at" unicode="@" horiz-adv-x="700" 
d="M650 320c0 -182 -143 -325 -325 -325s-325 143 -325 325c0 120 64 228 170 286c-49 -50 -74 -105 -74 -165c0 -102 49 -171 125 -171c41 0 71 56 71 133c0 69 -36 128 -89 145l37 44c21 -12 38 -29 49 -52c-3 43 -10 71 -23 84l59 71l59 -71c-13 -13 -20 -41 -23 -84
c11 23 28 40 49 52l37 -44c-53 -17 -89 -76 -89 -145c0 -77 30 -133 71 -133c76 0 125 69 125 171c0 60 -25 115 -74 165c104 -57 170 -168 170 -286z" />
    <glyph glyph-name="A" unicode="A" horiz-adv-x="750" 
d="M700 0h-210l-27 80h-226l-27 -80h-210l152 450h-222v200h550zM416 220l-66 194l-66 -194h132z" />
    <glyph glyph-name="B" unicode="B" 
d="M600 220c0 -122 -97 -220 -220 -220h-380v450h-70v200h450c122 0 220 -98 220 -220c0 -26 -12 -61 -37 -105c25 -44 37 -79 37 -105zM400 430c0 33 -20 50 -60 50h-140v-100h140c40 0 60 17 60 50zM400 220c0 33 -20 50 -60 50h-140v-100h140c40 0 60 17 60 50z" />
    <glyph glyph-name="C" unicode="C" horiz-adv-x="600" 
d="M550 0h-225c-182 0 -325 143 -325 325c0 180 145 325 325 325h225v-200h-225c-70 0 -125 -55 -125 -125c0 -71 54 -125 125 -125h225v-200z" />
    <glyph glyph-name="D" unicode="D" 
d="M600 325c0 -182 -143 -325 -325 -325h-275v450h-70v200h345c179 0 325 -146 325 -325zM400 325c0 69 -56 125 -125 125h-75v-250h75c70 0 125 55 125 125z" />
    <glyph glyph-name="E" unicode="E" 
d="M600 0h-600v450h-70v200h670v-200h-400v-50h300v-150h-300v-50h400v-200z" />
    <glyph glyph-name="F" unicode="F" 
d="M600 450h-400v-50h300v-150h-300v-250h-200v450h-70v200h670v-200z" />
    <glyph glyph-name="G" unicode="G" 
d="M600 0h-275c-182 0 -325 143 -325 325c0 180 145 325 325 325h275v-200h-275c-70 0 -125 -55 -125 -125c0 -71 54 -125 125 -125h75v150h200v-350z" />
    <glyph glyph-name="H" unicode="H" 
d="M600 0h-200v250h-200v-250h-200v450h-70v200h270v-250h200v250h200v-650z" />
    <glyph glyph-name="I" unicode="I" horiz-adv-x="250" 
d="M200 0h-200v450h-70v200h270v-650z" />
    <glyph glyph-name="J" unicode="J" horiz-adv-x="400" 
d="M350 100c0 -167 -133 -300 -300 -300l-50 200h50c55 0 100 45 100 100v350h-220v200h420v-550z" />
    <glyph glyph-name="K" unicode="K" horiz-adv-x="670" 
d="M620 0h-140c-53 0 -100 20 -140 60l-140 140v-200h-200v450h-70v200h270v-255l170 255h230l-225 -337l95 -94c13 -13 33 -19 60 -19h90v-200z" />
    <glyph glyph-name="L" unicode="L" 
d="M600 0h-600v450h-70v200h270v-450h400v-200z" />
    <glyph glyph-name="M" unicode="M" horiz-adv-x="750" 
d="M700 0h-200v220l-150 -220l-150 220v-220h-200v450h-70v200h270l150 -220l150 220h200v-650z" />
    <glyph glyph-name="N" unicode="N" 
d="M600 0h-200c0 198 -82 330 -200 330v-330h-200v450h-70v200c143 0 220 -2 331 -55c69 -33 115 -71 139 -115v170h200v-650z" />
    <glyph glyph-name="O" unicode="O" horiz-adv-x="700" 
d="M650 325c0 -180 -145 -325 -325 -325c-182 0 -325 143 -325 325c0 180 145 325 325 325c179 0 325 -146 325 -325zM450 325c0 68 -57 125 -125 125c-70 0 -125 -55 -125 -125c0 -71 54 -125 125 -125c70 0 125 55 125 125z" />
    <glyph glyph-name="P" unicode="P" 
d="M600 430c0 -122 -97 -220 -220 -220h-180v-210h-200v450h-70v200h450c122 0 220 -98 220 -220zM400 430c0 33 -20 50 -60 50h-140v-100h140c40 0 60 17 60 50z" />
    <glyph glyph-name="Q" unicode="Q" horiz-adv-x="750" 
d="M700 0h-375c-182 0 -325 143 -325 325c0 180 145 325 325 325c179 0 325 -146 325 -325c0 -43 -8 -85 -25 -125h75v-200zM450 325c0 69 -56 125 -125 125c-68 0 -125 -57 -125 -125c0 -71 54 -125 125 -125c70 0 125 55 125 125z" />
    <glyph glyph-name="R" unicode="R" horiz-adv-x="670" 
d="M620 0h-130c-53 0 -100 20 -140 60l-150 150v-210h-200v450h-70v200h450c122 0 220 -98 220 -220c0 -82 -47 -163 -130 -201c9 -19 25 -29 50 -29h100v-200zM400 430c0 33 -20 50 -60 50h-140v-100h140c40 0 60 17 60 50z" />
    <glyph glyph-name="S" unicode="S" 
d="M600 450h-264c-6 -2 -9 -6 -9 -12c0 -3 1 -7 3 -10l78 -44c81 -45 122 -107 122 -184c0 -112 -88 -200 -200 -200h-400v200h334c6 2 9 6 9 12c0 3 -1 7 -3 10l-78 44c-81 45 -122 107 -122 184c0 112 88 200 200 200h330v-200z" />
    <glyph glyph-name="T" unicode="T" 
d="M600 450h-200v-450h-200v450h-270v200h670v-200z" />
    <glyph glyph-name="U" unicode="U" 
d="M600 300c0 -167 -133 -300 -300 -300s-300 133 -300 300v150h-70v200h270v-350c0 -56 44 -100 100 -100c55 0 100 45 100 100v350h200v-350z" />
    <glyph glyph-name="V" unicode="V" horiz-adv-x="750" 
d="M700 650l-220 -650h-260l-152 450h-138v200h280l140 -414l140 414h210z" />
    <glyph glyph-name="W" unicode="W" horiz-adv-x="1050" 
d="M1000 650l-220 -650h-200l-80 230l-80 -230h-200l-152 450h-138v200h280l95 -270l95 270h200l95 -270l95 270h210z" />
    <glyph glyph-name="X" unicode="X" horiz-adv-x="700" 
d="M650 0h-240l-85 135l-85 -135h-240l205 325l-79 125h-196v200h310l85 -135l85 135h240l-205 -325z" />
    <glyph glyph-name="Y" unicode="Y" horiz-adv-x="700" 
d="M650 650l-225 -345v-305h-200v305l-95 145h-200v200h310l85 -135l85 135h240z" />
    <glyph glyph-name="Z" unicode="Z" 
d="M600 0h-600v200l290 250h-360v200h670v-200l-290 -250h290v-200z" />
    <glyph glyph-name="a" unicode="a" horiz-adv-x="750" 
d="M700 0h-210l-27 80h-226l-27 -80h-210l220 650h260zM416 220l-66 194l-66 -194h132z" />
    <glyph glyph-name="b" unicode="b" 
d="M600 220c0 -122 -97 -220 -220 -220h-380v650h380c122 0 220 -98 220 -220c0 -26 -12 -61 -37 -105c25 -44 37 -79 37 -105zM400 430c0 33 -20 50 -60 50h-140v-100h140c40 0 60 17 60 50zM400 220c0 33 -20 50 -60 50h-140v-100h140c40 0 60 17 60 50z" />
    <glyph glyph-name="c" unicode="c" horiz-adv-x="600" 
d="M550 0h-225c-182 0 -325 143 -325 325c0 180 145 325 325 325h225v-200h-225c-70 0 -125 -55 -125 -125c0 -71 54 -125 125 -125h225v-200z" />
    <glyph glyph-name="d" unicode="d" 
d="M600 325c0 -182 -143 -325 -325 -325h-275v650h275c179 0 325 -146 325 -325zM400 325c0 69 -56 125 -125 125h-75v-250h75c70 0 125 55 125 125z" />
    <glyph glyph-name="e" unicode="e" 
d="M600 0h-600v650h600v-200h-400v-50h300v-150h-300v-50h400v-200z" />
    <glyph glyph-name="f" unicode="f" 
d="M600 450h-400v-50h300v-150h-300v-250h-200v650h600v-200z" />
    <glyph glyph-name="g" unicode="g" 
d="M600 0h-275c-182 0 -325 143 -325 325c0 180 145 325 325 325h275v-200h-275c-70 0 -125 -55 -125 -125c0 -71 54 -125 125 -125h75v150h200v-350z" />
    <glyph glyph-name="h" unicode="h" 
d="M600 0h-200v250h-200v-250h-200v650h200v-250h200v250h200v-650z" />
    <glyph glyph-name="i" unicode="i" horiz-adv-x="250" 
d="M200 0h-200v650h200v-650z" />
    <glyph glyph-name="j" unicode="j" horiz-adv-x="400" 
d="M350 100c0 -167 -133 -300 -300 -300l-50 200h50c55 0 100 45 100 100v550h200v-550z" />
    <glyph glyph-name="k" unicode="k" horiz-adv-x="670" 
d="M620 0h-140c-53 0 -100 20 -140 60l-140 140v-200h-200v650h200v-255l170 255h230l-225 -337l95 -94c13 -13 33 -19 60 -19h90v-200z" />
    <glyph glyph-name="l" unicode="l" 
d="M600 0h-600v650h200v-450h400v-200z" />
    <glyph glyph-name="m" unicode="m" horiz-adv-x="750" 
d="M700 0h-200v220l-150 -220l-150 220v-220h-200v650h200l150 -220l150 220h200v-650z" />
    <glyph glyph-name="n" unicode="n" 
d="M600 0h-200c0 198 -82 330 -200 330v-330h-200v650c179 0 346 -71 400 -170v170h200v-650z" />
    <glyph glyph-name="o" unicode="o" horiz-adv-x="700" 
d="M650 325c0 -180 -145 -325 -325 -325c-182 0 -325 143 -325 325c0 180 145 325 325 325c179 0 325 -146 325 -325zM450 325c0 68 -57 125 -125 125c-70 0 -125 -55 -125 -125c0 -71 54 -125 125 -125c70 0 125 55 125 125z" />
    <glyph glyph-name="p" unicode="p" 
d="M600 430c0 -122 -97 -220 -220 -220h-180v-210h-200v650h380c122 0 220 -98 220 -220zM400 430c0 33 -20 50 -60 50h-140v-100h140c40 0 60 17 60 50z" />
    <glyph glyph-name="q" unicode="q" horiz-adv-x="750" 
d="M700 0h-375c-182 0 -325 143 -325 325c0 180 145 325 325 325c179 0 325 -146 325 -325c0 -43 -8 -85 -25 -125h75v-200zM450 325c0 69 -56 125 -125 125c-68 0 -125 -57 -125 -125c0 -71 54 -125 125 -125c70 0 125 55 125 125z" />
    <glyph glyph-name="r" unicode="r" horiz-adv-x="670" 
d="M620 0h-130c-53 0 -100 20 -140 60l-150 150v-210h-200v650h380c122 0 220 -98 220 -220c0 -82 -47 -163 -130 -201c9 -19 25 -29 50 -29h100v-200zM400 430c0 33 -20 50 -60 50h-140v-100h140c40 0 60 17 60 50z" />
    <glyph glyph-name="s" unicode="s" 
d="M600 450h-264c-6 -2 -9 -6 -9 -12c0 -3 1 -7 3 -10l78 -44c81 -45 122 -107 122 -184c0 -112 -88 -200 -200 -200h-330v200h264c6 2 9 6 9 12c0 3 -1 7 -3 10l-78 44c-81 45 -122 107 -122 184c0 112 88 200 200 200h330v-200z" />
    <glyph glyph-name="t" unicode="t" 
d="M600 450h-200v-450h-200v450h-200v200h600v-200z" />
    <glyph glyph-name="u" unicode="u" 
d="M600 300c0 -167 -133 -300 -300 -300s-300 133 -300 300v350h200v-350c0 -56 44 -100 100 -100c55 0 100 45 100 100v350h200v-350z" />
    <glyph glyph-name="v" unicode="v" horiz-adv-x="750" 
d="M700 650l-220 -650h-260l-220 650h210l140 -414l140 414h210z" />
    <glyph glyph-name="w" unicode="w" horiz-adv-x="1050" 
d="M1000 650l-220 -650h-200l-80 230l-80 -230h-200l-220 650h210l95 -270l95 270h200l95 -270l95 270h210z" />
    <glyph glyph-name="x" unicode="x" horiz-adv-x="700" 
d="M650 0h-240l-85 135l-85 -135h-240l205 325l-205 325h240l85 -135l85 135h240l-205 -325z" />
    <glyph glyph-name="y" unicode="y" horiz-adv-x="700" 
d="M650 650l-225 -345v-305h-200v305l-225 345h240l85 -135l85 135h240z" />
    <glyph glyph-name="z" unicode="z" 
d="M600 0h-600v200l290 250h-290v200h600v-200l-290 -250h290v-200z" />
    <glyph glyph-name="exclamdown" unicode="&#xa1;" horiz-adv-x="250" 
d="M200 550c0 -55 -45 -100 -100 -100c-56 0 -100 44 -100 100c0 55 45 100 100 100c54 0 100 -46 100 -100zM200 0h-200l20 400h160z" />
    <glyph glyph-name="copyright" unicode="&#xa9;" horiz-adv-x="700" 
d="M330 165c0 -89 -71 -165 -165 -165c-92 0 -165 73 -165 165c0 94 76 165 165 165c91 0 165 -74 165 -165zM310 165c0 80 -65 145 -145 145c-81 0 -145 -64 -145 -145c0 -82 63 -145 145 -145c81 0 145 64 145 145zM231 57h-74c-60 0 -107 47 -107 107s47 107 107 107h74
v-66h-74c-23 0 -41 -18 -41 -41s18 -41 41 -41h74v-66z" />
    <glyph glyph-name="registered" unicode="&#xae;" horiz-adv-x="380" 
d="M330 165c0 -89 -71 -165 -165 -165c-92 0 -165 73 -165 165c0 94 76 165 165 165c91 0 165 -74 165 -165zM202 202c0 11 -7 16 -20 16h-46v-33h46c13 0 20 6 20 17zM310 165c0 80 -65 145 -145 145c-81 0 -145 -64 -145 -145c0 -82 63 -145 145 -145c39 0 72 13 100 40
h-33c-18 0 -34 7 -47 20l-49 49v-69h-66v214h125c40 0 73 -33 73 -72c0 -31 -14 -53 -43 -66c3 -7 8 -10 17 -10h33v-56c23 27 35 59 35 95z" />
    <glyph glyph-name="paragraph" unicode="&#xb6;" horiz-adv-x="550" 
d="M500 450h-50v-450h-100v450h-50v-450h-100v250c-112 0 -200 88 -200 200s88 200 200 200h300v-200z" />
    <glyph glyph-name="questiondown" unicode="&#xbf;" horiz-adv-x="550" 
d="M400 550c0 -55 -45 -100 -100 -100c-56 0 -100 44 -100 100c0 55 45 100 100 100c54 0 100 -46 100 -100zM300 0h-100c-112 0 -200 88 -200 200c0 59 11 83 50 112c33 25 73 38 120 38c28 0 50 22 50 50h160c0 -59 -9 -83 -38 -112c-25 -25 -56 -38 -92 -38
c-43 0 -50 -32 -50 -70c0 -29 21 -50 50 -50c28 0 50 22 50 50v40h200c0 -136 -83 -220 -200 -220z" />
    <glyph glyph-name="AE" unicode="&#xc6;" horiz-adv-x="1070" 
d="M1020 0h-500v80h-217l-53 -80h-250l431 650h589v-200h-300v-60h200v-130h-200v-60h300v-200zM520 220v187l-125 -187h125z" />
    <glyph glyph-name="ae" unicode="&#xe6;" horiz-adv-x="1070" 
d="M1020 0h-500v80h-217l-53 -80h-250l431 650h589v-200h-300v-60h200v-130h-200v-60h300v-200zM520 220v187l-125 -187h125z" />
    <glyph glyph-name="OE" unicode="&#x152;" horiz-adv-x="1000" 
d="M950 0h-500v25c-40 -17 -82 -25 -125 -25c-182 0 -325 143 -325 325c0 180 145 325 325 325c43 0 85 -8 125 -25v25h500v-200h-300v-60h200v-130h-200v-60h300v-200zM450 325c0 68 -57 125 -125 125c-70 0 -125 -55 -125 -125c0 -71 54 -125 125 -125
c70 0 125 55 125 125z" />
    <glyph glyph-name="oe" unicode="&#x153;" horiz-adv-x="1000" 
d="M950 0h-500v25c-40 -17 -82 -25 -125 -25c-182 0 -325 143 -325 325c0 180 145 325 325 325c43 0 85 -8 125 -25v25h500v-200h-300v-60h200v-130h-200v-60h300v-200zM450 325c0 68 -57 125 -125 125c-70 0 -125 -55 -125 -125c0 -71 54 -125 125 -125
c70 0 125 55 125 125z" />
    <glyph glyph-name="quoteleft" unicode="&#x2018;" horiz-adv-x="250" 
d="M200 500c0 -55 -45 -100 -100 -100c-56 0 -100 44 -100 100c0 112 88 200 200 200v-50c-55 0 -100 -22 -100 -50c54 0 100 -46 100 -100z" />
    <glyph glyph-name="quoteright" unicode="&#x2019;" horiz-adv-x="250" 
d="M200 550c0 -112 -88 -200 -200 -200v50c56 0 100 22 100 50c-56 0 -100 44 -100 100c0 55 45 100 100 100c54 0 100 -46 100 -100z" />
    <glyph glyph-name="quotesinglbase" unicode="&#x201a;" horiz-adv-x="250" 
d="M200 100c0 -111 -89 -200 -200 -200v50c55 0 100 23 100 50c-56 0 -100 44 -100 100c0 55 45 100 100 100c54 0 100 -46 100 -100z" />
    <glyph glyph-name="quotedblleft" unicode="&#x201c;" horiz-adv-x="470" 
d="M420 500c0 -55 -45 -100 -100 -100c-56 0 -100 44 -100 100c0 112 88 200 200 200v-50c-55 0 -100 -22 -100 -50c54 0 100 -46 100 -100zM200 500c0 -55 -45 -100 -100 -100c-56 0 -100 44 -100 100c0 112 88 200 200 200v-50c-55 0 -100 -22 -100 -50
c54 0 100 -46 100 -100z" />
    <glyph glyph-name="quotedblright" unicode="&#x201d;" horiz-adv-x="470" 
d="M420 550c0 -112 -88 -200 -200 -200v50c56 0 100 22 100 50c-56 0 -100 44 -100 100c0 55 45 100 100 100c54 0 100 -46 100 -100zM200 550c0 -112 -88 -200 -200 -200v50c56 0 100 22 100 50c-56 0 -100 44 -100 100c0 55 45 100 100 100c54 0 100 -46 100 -100z" />
    <glyph glyph-name="quotedblbase" unicode="&#x201e;" horiz-adv-x="470" 
d="M420 100c0 -111 -89 -200 -200 -200v50c55 0 100 23 100 50c-56 0 -100 44 -100 100c0 55 45 100 100 100c54 0 100 -46 100 -100zM200 100c0 -111 -89 -200 -200 -200v50c55 0 100 23 100 50c-56 0 -100 44 -100 100c0 55 45 100 100 100c54 0 100 -46 100 -100z" />
  </font>
</defs>
</svg>
