<svg width="21" height="13" viewBox="0 0 21 13" fill="none" xmlns="http://www.w3.org/2000/svg">
<rect width="11" height="18.3333" transform="matrix(0.00142336 0.999999 0.999999 -0.00142336 1 1.02588)" fill="white"/>
<path fill-rule="evenodd" clip-rule="evenodd" d="M0.358727 5.87845C0.00125633 6.23694 0.00208245 6.81734 0.360572 7.17481L5.8684 12.667C6.22689 13.0244 6.80729 13.0236 7.16476 12.6651C7.52223 12.3066 7.5214 11.7262 7.16291 11.3688L3.22216 7.43922L19.3425 7.41628C19.8487 7.41556 20.2585 7.00457 20.2578 6.49831C20.2571 5.99205 19.8461 5.58223 19.3398 5.58295L3.21955 5.60589L7.1491 1.66514C7.50657 1.30665 7.50574 0.726252 7.14725 0.368781C6.78877 0.0113102 6.20836 0.0121363 5.85089 0.370626L0.358727 5.87845Z" fill="black"/>
</svg>
