<svg width="60" height="60" viewBox="0 0 60 60" fill="none" xmlns="http://www.w3.org/2000/svg">
<path d="M57.5 47.5C57.5 48.8261 56.9732 50.0979 56.0355 51.0355C55.0979 51.9732 53.8261 52.5 52.5 52.5H7.5C6.17392 52.5 4.90215 51.9732 3.96447 51.0355C3.02678 50.0979 2.5 48.8261 2.5 47.5V20C2.5 18.6739 3.02678 17.4021 3.96447 16.4645C4.90215 15.5268 6.17392 15 7.5 15H17.5L22.5 7.5H37.5L42.5 15H52.5C53.8261 15 55.0979 15.5268 56.0355 16.4645C56.9732 17.4021 57.5 18.6739 57.5 20V47.5Z" stroke="black" stroke-width="2" stroke-linecap="round" stroke-linejoin="round"/>
<path d="M30 42.5C35.5228 42.5 40 38.0228 40 32.5C40 26.9772 35.5228 22.5 30 22.5C24.4772 22.5 20 26.9772 20 32.5C20 38.0228 24.4772 42.5 30 42.5Z" stroke="black" stroke-width="2" stroke-linecap="round" stroke-linejoin="round"/>
</svg>
