<svg width="26" height="26" viewBox="0 0 26 26" fill="none" xmlns="http://www.w3.org/2000/svg">
<path d="M13.0001 7.72559C10.0871 7.72559 7.72569 10.087 7.72569 13C7.72569 15.9129 10.0871 18.2743 13.0001 18.2743C15.913 18.2743 18.2744 15.9129 18.2744 13C18.2744 10.087 15.913 7.72559 13.0001 7.72559ZM9.35069 13C9.35069 10.9845 10.9846 9.35059 13.0001 9.35059C15.0155 9.35059 16.6494 10.9845 16.6494 13C16.6494 15.0154 15.0155 16.6493 13.0001 16.6493C10.9846 16.6493 9.35069 15.0154 9.35069 13Z" fill="white"/>
<path d="M15.9193 2.18299C15.0614 -0.727663 10.9386 -0.727661 10.0807 2.18299L9.92822 2.70041C9.67274 3.56719 8.68272 3.97727 7.88916 3.54502L7.41545 3.28699C4.75068 1.83548 1.83548 4.75069 3.28699 7.41546L3.54502 7.88917C3.97727 8.68272 3.56719 9.67275 2.70041 9.92823L2.18299 10.0807C-0.727663 10.9386 -0.727661 15.0614 2.18299 15.9193L2.70041 16.0718C3.56719 16.3273 3.97727 17.3173 3.54502 18.1108L3.28699 18.5845C1.83548 21.2493 4.75068 24.1645 7.41545 22.713L7.88916 22.455C8.68272 22.0227 9.67275 22.4328 9.92822 23.2996L10.0807 23.817C10.9386 26.7277 15.0614 26.7277 15.9193 23.817L16.0718 23.2996C16.3273 22.4328 17.3173 22.0227 18.1108 22.455L18.5845 22.713C21.2493 24.1645 24.1645 21.2493 22.713 18.5846L22.455 18.1108C22.0227 17.3173 22.4328 16.3273 23.2996 16.0718L23.817 15.9193C26.7277 15.0614 26.7277 10.9386 23.817 10.0807L23.2996 9.92823C22.4328 9.67275 22.0227 8.68272 22.455 7.88916L22.713 7.41545C24.1645 4.75068 21.2493 1.83548 18.5845 3.28699L18.1108 3.54502C17.3173 3.97727 16.3273 3.56719 16.0718 2.70041L15.9193 2.18299ZM11.6394 2.64241C12.0393 1.28586 13.9607 1.28586 14.3606 2.64241L14.5131 3.15984C15.0612 5.01962 17.1855 5.8995 18.8881 4.97205L19.3619 4.71402C20.6038 4.03752 21.9625 5.3962 21.286 6.63814L21.0279 7.11186C20.1005 8.81453 20.9804 10.9388 22.8402 11.4869L23.3576 11.6394C24.7141 12.0393 24.7141 13.9607 23.3576 14.3606L22.8402 14.5131C20.9804 15.0612 20.1005 17.1855 21.028 18.8881L21.286 19.3619C21.9625 20.6038 20.6038 21.9625 19.3619 21.286L18.8881 21.028C17.1855 20.1005 15.0612 20.9804 14.5131 22.8402L14.3606 23.3576C13.9607 24.7141 12.0393 24.7141 11.6394 23.3576L11.4869 22.8402C10.9388 20.9804 8.81453 20.1005 7.11186 21.028L6.63814 21.286C5.39619 21.9625 4.03752 20.6038 4.71402 19.3619L4.97205 18.8881C5.8995 17.1855 5.01962 15.0612 3.15984 14.5131L2.64241 14.3606C1.28586 13.9607 1.28586 12.0393 2.64241 11.6394L3.15984 11.4869C5.01962 10.9388 5.8995 8.81453 4.97205 7.11186L4.71402 6.63815C4.03752 5.39619 5.39619 4.03753 6.63815 4.71402L7.11185 4.97205C8.81453 5.8995 10.9388 5.01962 11.4869 3.15984L11.6394 2.64241Z" fill="white"/>
</svg>
