<svg width="26" height="23" viewBox="0 0 26 23" fill="none" xmlns="http://www.w3.org/2000/svg">
<path d="M16.204 3.07533C16.3184 2.75 16.2141 2.38726 15.9451 2.17146L15.6545 1.96262C15.4795 1.84566 15.2287 1.69039 14.9122 1.52716C14.2817 1.20196 13.3755 0.83732 12.2807 0.690925C10.1008 0.399438 7.32104 0.995177 4.61606 4.08878L2.90181 4.08874C2.6859 4.08873 2.47886 4.17466 2.32642 4.32756L0.237131 6.423C-0.0790467 6.74011 -0.0790431 7.25326 0.237139 7.57037L4.41571 11.7611C4.56815 11.914 4.77517 12 4.99107 12C5.20697 12 5.41399 11.914 5.56643 11.7611L7.65572 9.66576C7.80758 9.51345 7.89286 9.30715 7.89286 9.09207V8.05354L21.5221 22.4709C21.6627 22.6611 21.8792 22.7806 22.115 22.7982C22.3509 22.8158 22.5827 22.7297 22.75 22.5625L25.1875 20.125C25.4936 19.8188 25.506 19.3264 25.2155 19.0054L10.3805 4.98138C11.595 4.24094 13.2602 3.61835 15.4375 3.61835C15.7823 3.61835 16.0896 3.40066 16.204 3.07533Z" fill="#262730"/>
</svg>
