<svg width="22" height="24" viewBox="0 0 22 24" fill="none" xmlns="http://www.w3.org/2000/svg">
<path d="M11.5745 0.862976C11.2572 0.545675 10.7428 0.545675 10.4255 0.862976L0.675476 10.613C0.523102 10.7653 0.4375 10.972 0.4375 11.1875V22.5625C0.4375 23.0112 0.801269 23.375 1.25 23.375H8.5625C9.01123 23.375 9.375 23.0112 9.375 22.5625V16.0625H12.625V22.5625C12.625 23.0112 12.9888 23.375 13.4375 23.375H20.75C21.1987 23.375 21.5625 23.0112 21.5625 22.5625V11.1875C21.5625 10.972 21.4769 10.7653 21.3245 10.613L19.125 8.41345V3.0625C19.125 2.61377 18.7612 2.25 18.3125 2.25H16.6875C16.2388 2.25 15.875 2.61377 15.875 3.0625V5.16345L11.5745 0.862976ZM2.0625 21.75V11.524L11 2.58655L19.9375 11.524V21.75H14.25V15.25C14.25 14.8013 13.8862 14.4375 13.4375 14.4375H8.5625C8.11377 14.4375 7.75 14.8013 7.75 15.25V21.75H2.0625Z" fill="white"/>
</svg>
