<svg width="20" height="26" viewBox="0 0 20 26" fill="none" xmlns="http://www.w3.org/2000/svg">
<path d="M5.125 6.5C4.67627 6.5 4.3125 6.86377 4.3125 7.3125C4.3125 7.76123 4.67627 8.125 5.125 8.125H14.875C15.3237 8.125 15.6875 7.76123 15.6875 7.3125C15.6875 6.86377 15.3237 6.5 14.875 6.5H5.125Z" fill="white"/>
<path d="M4.3125 10.5625C4.3125 10.1138 4.67627 9.75 5.125 9.75H14.875C15.3237 9.75 15.6875 10.1138 15.6875 10.5625C15.6875 11.0112 15.3237 11.375 14.875 11.375H5.125C4.67627 11.375 4.3125 11.0112 4.3125 10.5625Z" fill="white"/>
<path d="M5.125 13C4.67627 13 4.3125 13.3638 4.3125 13.8125C4.3125 14.2612 4.67627 14.625 5.125 14.625H14.875C15.3237 14.625 15.6875 14.2612 15.6875 13.8125C15.6875 13.3638 15.3237 13 14.875 13H5.125Z" fill="white"/>
<path d="M5.125 16.25C4.67627 16.25 4.3125 16.6138 4.3125 17.0625C4.3125 17.5112 4.67627 17.875 5.125 17.875H10C10.4487 17.875 10.8125 17.5112 10.8125 17.0625C10.8125 16.6138 10.4487 16.25 10 16.25H5.125Z" fill="white"/>
<path d="M0.25 3.25C0.25 1.45507 1.70508 0 3.5 0H16.5C18.2949 0 19.75 1.45507 19.75 3.25V22.75C19.75 24.5449 18.2949 26 16.5 26H3.5C1.70508 26 0.25 24.5449 0.25 22.75V3.25ZM16.5 1.625H3.5C2.60254 1.625 1.875 2.35254 1.875 3.25V22.75C1.875 23.6475 2.60254 24.375 3.5 24.375H16.5C17.3975 24.375 18.125 23.6475 18.125 22.75V3.25C18.125 2.35254 17.3975 1.625 16.5 1.625Z" fill="white"/>
</svg>
