<svg width="24" height="30" viewBox="0 0 24 30" fill="none" xmlns="http://www.w3.org/2000/svg">
<path d="M15.1276 3.31492C15.2343 2.8748 15.137 2.38407 14.8859 2.09212L14.6145 1.80959C14.4512 1.65137 14.217 1.4413 13.9216 1.22048C13.333 0.780535 12.487 0.287236 11.4649 0.0891864C9.42977 -0.305151 6.83469 0.500792 4.30941 4.68596L2.70904 4.6859C2.50747 4.68589 2.31419 4.80215 2.17187 5.00899L0.221378 7.84381C-0.0737955 8.27281 -0.0737922 8.96702 0.221385 9.39601L4.12237 15.0655C4.26468 15.2723 4.45795 15.3886 4.65951 15.3886C4.86107 15.3886 5.05433 15.2723 5.19665 15.0655L7.14714 12.2307C7.28891 12.0247 7.36853 11.7456 7.36853 11.4546V10.0497L20.0923 29.5542C20.2236 29.8115 20.4257 29.9732 20.6459 29.997C20.8661 30.0208 21.0826 29.9043 21.2387 29.6781L23.5143 26.3805C23.8001 25.9663 23.8116 25.3001 23.5404 24.8658L9.69094 5.89351C10.8247 4.8918 12.3793 4.04954 14.412 4.04954C14.7339 4.04954 15.0208 3.75504 15.1276 3.31492Z" fill="white"/>
</svg>
