<svg width="26" height="26" viewBox="0 0 26 26" fill="none" xmlns="http://www.w3.org/2000/svg">
<path d="M23.8333 24.8258H24.487C24.4812 24.8288 24.4754 24.8318 24.4695 24.8347C24.3133 24.9128 24.1451 24.9568 24.0075 24.9798C23.941 24.9908 23.8878 24.996 23.8552 24.9983C23.84 24.9994 23.8297 24.9998 23.8251 25H2.17488C2.17033 24.9998 2.16004 24.9994 2.14481 24.9983C2.11215 24.996 2.05897 24.9908 1.99252 24.9798C1.85489 24.9568 1.68667 24.9128 1.53055 24.8347C1.52465 24.8318 1.51879 24.8288 1.51299 24.8258H2.16667H23.8333ZM24.8373 24.5191L24.8333 23.82C24.8287 23.0321 24.4003 21.1753 22.7375 19.5125C21.1019 17.8768 18.1712 16.3333 13 16.3333C7.82877 16.3333 4.89806 17.8768 3.26244 19.5125C1.59962 21.1753 1.17123 23.0321 1.16668 23.82L1.16265 24.5191C1.08315 24.3949 1 24.1882 1 23.8333C1 23.0068 1.44221 21.097 3.14461 19.3946C4.8177 17.7215 7.79422 16.1667 13 16.1667C18.2058 16.1667 21.1823 17.7215 22.8554 19.3946C24.5578 21.097 25 23.0068 25 23.8333C25 24.1882 24.9168 24.395 24.8373 24.5191ZM13 11.8333C15.9455 11.8333 18.3333 9.44552 18.3333 6.5C18.3333 3.55448 15.9455 1.16667 13 1.16667C10.0545 1.16667 7.66667 3.55448 7.66667 6.5C7.66667 9.44552 10.0545 11.8333 13 11.8333ZM18.5 6.5C18.5 9.53757 16.0376 12 13 12C9.96243 12 7.5 9.53757 7.5 6.5C7.5 3.46243 9.96243 1 13 1C16.0376 1 18.5 3.46243 18.5 6.5Z" fill="#262730" stroke="#262730" stroke-width="2"/>
</svg>
