<svg width="22" height="22" viewBox="0 0 22 22" fill="none" xmlns="http://www.w3.org/2000/svg">
<path d="M11 11C14.0376 11 16.5 8.53757 16.5 5.5C16.5 2.46243 14.0376 0 11 0C7.96243 0 5.5 2.46243 5.5 5.5C5.5 8.53757 7.96243 11 11 11ZM14.6667 5.5C14.6667 7.52504 13.025 9.16667 11 9.16667C8.97496 9.16667 7.33333 7.52504 7.33333 5.5C7.33333 3.47496 8.97496 1.83333 11 1.83333C13.025 1.83333 14.6667 3.47496 14.6667 5.5Z" fill="white"/>
<path d="M22 20.1667C22 22 20.1667 22 20.1667 22H1.83333C1.83333 22 0 22 0 20.1667C0 18.3333 1.83333 12.8333 11 12.8333C20.1667 12.8333 22 18.3333 22 20.1667ZM20.1666 20.1603C20.164 19.7078 19.8847 18.3525 18.6411 17.1089C17.4453 15.9131 15.1967 14.6667 11 14.6667C6.80328 14.6667 4.55465 15.9131 3.35884 17.1089C2.11522 18.3525 1.83595 19.7078 1.83333 20.1603H20.1666Z" fill="white"/>
</svg>
