<svg width="22" height="20" viewBox="0 0 22 20" fill="none" xmlns="http://www.w3.org/2000/svg">
<path d="M15.125 6.51621V4.50014H6.875C3.83743 4.50014 1.375 6.96257 1.375 10.0001C1.375 10.8794 1.58084 11.7087 1.94634 12.4442C2.11531 12.7842 1.97665 13.1968 1.63663 13.3658C1.29661 13.5348 0.883981 13.3961 0.715004 13.0561C0.257131 12.1347 0 11.0965 0 10.0001C0 6.20318 3.07804 3.12514 6.875 3.12514H15.125V1.10906C15.125 0.817612 15.4649 0.658401 15.6888 0.844979L18.9331 3.54856C19.098 3.68599 19.098 3.93928 18.9331 4.07671L15.6888 6.78029C15.4649 6.96687 15.125 6.80766 15.125 6.51621Z" fill="#262730"/>
<path d="M20.3634 6.63447C20.7034 6.4655 21.116 6.60416 21.285 6.94418C21.7429 7.86553 22 8.90379 22 10.0001C22 13.7971 18.922 16.8751 15.125 16.8751H6.875V18.8912C6.875 19.1827 6.53508 19.3419 6.31119 19.1553L3.06689 16.4517C2.90198 16.3143 2.90198 16.061 3.06689 15.9236L6.31119 13.22C6.53508 13.0334 6.875 13.1926 6.875 13.4841V15.5001H15.125C18.1626 15.5001 20.625 13.0377 20.625 10.0001C20.625 9.12083 20.4192 8.29157 20.0537 7.5561C19.8847 7.21608 20.0233 6.80345 20.3634 6.63447Z" fill="#262730"/>
</svg>
