<svg width="22" height="22" viewBox="0 0 22 22" fill="none" xmlns="http://www.w3.org/2000/svg">
<path d="M15.125 7.51597V5.4999H6.875C3.83743 5.4999 1.375 7.96233 1.375 10.9999C1.375 11.8792 1.58084 12.7085 1.94634 13.4439C2.11531 13.784 1.97665 14.1966 1.63663 14.3656C1.29661 14.5345 0.883981 14.3959 0.715004 14.0559C0.257131 13.1345 0 12.0962 0 10.9999C0 7.20294 3.07804 4.1249 6.875 4.1249H15.125V2.10881C15.125 1.81737 15.4649 1.65816 15.6888 1.84474L18.9331 4.54832C19.098 4.68574 19.098 4.93904 18.9331 5.07647L15.6888 7.78005C15.4649 7.96662 15.125 7.80741 15.125 7.51597Z" fill="#262730"/>
<path d="M20.3634 7.63423C20.7034 7.46525 21.116 7.60391 21.285 7.94394C21.7429 8.86529 22 9.90355 22 10.9999C22 14.7969 18.922 17.8749 15.125 17.8749H6.875V19.891C6.875 20.1824 6.53508 20.3416 6.31119 20.155L3.06689 17.4515C2.90198 17.314 2.90198 17.0607 3.06689 16.9233L6.31119 14.2197C6.53508 14.0332 6.875 14.1924 6.875 14.4838V16.4999H15.125C18.1626 16.4999 20.625 14.0375 20.625 10.9999C20.625 10.1206 20.4192 9.29132 20.0537 8.55585C19.8847 8.21583 20.0233 7.80321 20.3634 7.63423Z" fill="#262730"/>
</svg>
