<svg width="28" height="22" viewBox="0 0 28 22" fill="none" xmlns="http://www.w3.org/2000/svg">
<path fill-rule="evenodd" clip-rule="evenodd" d="M9.25008 2.75C9.25008 2.24374 9.66049 1.83333 10.1667 1.83333L24.8334 1.83333C25.3397 1.83333 25.7501 2.24374 25.7501 2.75V19.25C25.7501 19.7563 25.3397 20.1667 24.8334 20.1667H10.1667C9.66049 20.1667 9.25008 19.7563 9.25008 19.25L9.25008 15.5833C9.25008 15.0771 8.83968 14.6667 8.33341 14.6667C7.82715 14.6667 7.41675 15.0771 7.41675 15.5833V19.25C7.41675 20.7688 8.64797 22 10.1667 22H24.8334C26.3522 22 27.5834 20.7688 27.5834 19.25V2.75C27.5834 1.23122 26.3522 0 24.8334 0L10.1667 0C8.64797 0 7.41675 1.23122 7.41675 2.75V6.41667C7.41675 6.92293 7.82715 7.33333 8.33341 7.33333C8.83968 7.33333 9.25008 6.92293 9.25008 6.41667V2.75Z" fill="white"/>
<path fill-rule="evenodd" clip-rule="evenodd" d="M19.9815 11.648C20.3395 11.29 20.3395 10.7096 19.9815 10.3517L14.4815 4.85166C14.1235 4.49368 13.5431 4.49368 13.1852 4.85166C12.8272 5.20964 12.8272 5.79004 13.1852 6.14802L17.1203 10.0832H0.999998C0.493738 10.0832 0.0833321 10.4936 0.0833321 10.9998C0.0833321 11.5061 0.493738 11.9165 0.999998 11.9165H17.1203L13.1852 15.8517C12.8272 16.2096 12.8272 16.79 13.1852 17.148C13.5431 17.506 14.1235 17.506 14.4815 17.148L19.9815 11.648Z" fill="white"/>
</svg>
