<svg width="18" height="18" viewBox="0 0 18 18" fill="none" xmlns="http://www.w3.org/2000/svg">
<path d="M16.3125 0H1.6875C0.755859 0 0 0.863839 0 1.92857V16.0714C0 17.1362 0.755859 18 1.6875 18H16.3125C17.2441 18 18 17.1362 18 16.0714V1.92857C18 0.863839 17.2441 0 16.3125 0ZM13.3734 11.6719C13.5422 11.8647 13.5422 12.1781 13.3734 12.371L11.9496 13.9982C11.7809 14.1911 11.5066 14.1911 11.3379 13.9982L9 11.3022L6.66211 13.9982C6.49336 14.1911 6.21914 14.1911 6.05039 13.9982L4.62656 12.371C4.45781 12.1781 4.45781 11.8647 4.62656 11.6719L6.98555 9L4.62656 6.32812C4.45781 6.13527 4.45781 5.82188 4.62656 5.62902L6.05039 4.00179C6.21914 3.80893 6.49336 3.80893 6.66211 4.00179L9 6.69777L11.3379 4.00179C11.5066 3.80893 11.7809 3.80893 11.9496 4.00179L13.3734 5.62902C13.5422 5.82188 13.5422 6.13527 13.3734 6.32812L11.0145 9L13.3734 11.6719Z" fill="black"/>
</svg>
