<svg width="30" height="30" viewBox="0 0 30 30" fill="none" xmlns="http://www.w3.org/2000/svg">
<path d="M5.625 3.75L5.625 12.3483L18.75 25.4734L27.3484 16.875L14.2234 3.75L5.625 3.75ZM3.75 3.75C3.75 2.71447 4.58947 1.875 5.625 1.875H14.2233C14.7206 1.875 15.1975 2.07254 15.5492 2.42417L28.6742 15.5492C29.4064 16.2814 29.4064 17.4686 28.6742 18.2008L20.0758 26.7992C19.3436 27.5314 18.1564 27.5314 17.4242 26.7992L4.29917 13.6742C3.94754 13.3225 3.75 12.8456 3.75 12.3483V3.75Z" fill="white"/>
<path d="M10.3125 9.375C9.79473 9.375 9.375 8.95527 9.375 8.4375C9.375 7.91973 9.79473 7.5 10.3125 7.5C10.8303 7.5 11.25 7.91973 11.25 8.4375C11.25 8.95527 10.8303 9.375 10.3125 9.375ZM10.3125 11.25C11.8658 11.25 13.125 9.9908 13.125 8.4375C13.125 6.8842 11.8658 5.625 10.3125 5.625C8.7592 5.625 7.5 6.8842 7.5 8.4375C7.5 9.9908 8.7592 11.25 10.3125 11.25Z" fill="white"/>
<path d="M1.875 13.2858C1.875 13.7831 2.07254 14.26 2.42417 14.6117L16.4062 28.5938L16.3258 28.6742C15.5936 29.4064 14.4064 29.4064 13.6742 28.6742L0.549173 15.5492C0.197543 15.1975 0 14.7206 0 14.2233V5.625C0 4.58947 0.839466 3.75 1.875 3.75V13.2858Z" fill="white"/>
</svg>
