<svg width="25" height="25" viewBox="0 0 25 25" fill="none" xmlns="http://www.w3.org/2000/svg">
<path d="M17.1875 8.54075V6.24976H7.8125C4.36072 6.24976 1.5625 9.04798 1.5625 12.4998C1.5625 13.499 1.79641 14.4413 2.21175 15.2771C2.40376 15.6635 2.2462 16.1324 1.85981 16.3244C1.47342 16.5164 1.00452 16.3588 0.812504 15.9724C0.292195 14.9255 0 13.7456 0 12.4998C0 8.18503 3.49778 4.68726 7.8125 4.68726H17.1875V2.39625C17.1875 2.06507 17.5738 1.88415 17.8282 2.09617L21.5149 5.16842C21.7023 5.32459 21.7023 5.61242 21.5149 5.76859L17.8282 8.84084C17.5738 9.05286 17.1875 8.87194 17.1875 8.54075Z" fill="white"/>
<path d="M23.1402 8.67514C23.5266 8.48312 23.9955 8.64069 24.1875 9.02708C24.7078 10.0741 25 11.2539 25 12.4998C25 16.8145 21.5022 20.3123 17.1875 20.3123H7.8125V22.6033C7.8125 22.9344 7.42623 23.1154 7.1718 22.9033L3.4851 19.8311C3.2977 19.6749 3.2977 19.3871 3.4851 19.2309L7.1718 16.1587C7.42623 15.9466 7.8125 16.1276 7.8125 16.4588V18.7498H17.1875C20.6393 18.7498 23.4375 15.9515 23.4375 12.4998C23.4375 11.5005 23.2036 10.5582 22.7883 9.72244C22.5962 9.33605 22.7538 8.86716 23.1402 8.67514Z" fill="white"/>
</svg>
