<svg width="22" height="22" viewBox="0 0 22 22" fill="none" xmlns="http://www.w3.org/2000/svg">
<path d="M8.25 11C10.5282 11 12.375 9.15317 12.375 6.875C12.375 4.59683 10.5282 2.75 8.25 2.75C5.97183 2.75 4.125 4.59683 4.125 6.875C4.125 9.15317 5.97183 11 8.25 11ZM11 6.875C11 8.39378 9.76878 9.625 8.25 9.625C6.73122 9.625 5.5 8.39378 5.5 6.875C5.5 5.35622 6.73122 4.125 8.25 4.125C9.76878 4.125 11 5.35622 11 6.875Z" fill="black"/>
<path d="M16.5 17.875C16.5 19.25 15.125 19.25 15.125 19.25H1.375C1.375 19.25 0 19.25 0 17.875C0 16.5 1.375 12.375 8.25 12.375C15.125 12.375 16.5 16.5 16.5 17.875ZM15.125 17.8702C15.123 17.5309 14.9136 16.5144 13.9808 15.5816C13.084 14.6848 11.3975 13.75 8.24999 13.75C5.10246 13.75 3.41599 14.6848 2.51913 15.5816C1.58641 16.5144 1.37696 17.5309 1.375 17.8702H15.125Z" fill="black"/>
<path fill-rule="evenodd" clip-rule="evenodd" d="M16.7014 7.07636C16.9698 6.80788 17.4052 6.80788 17.6736 7.07636L19.25 8.65273L20.8264 7.07636C21.0948 6.80788 21.5302 6.80788 21.7986 7.07636C22.0671 7.34485 22.0671 7.78015 21.7986 8.04864L20.2223 9.625L21.7986 11.2014C22.0671 11.4698 22.0671 11.9052 21.7986 12.1736C21.5302 12.4421 21.0948 12.4421 20.8264 12.1736L19.25 10.5973L17.6736 12.1736C17.4052 12.4421 16.9698 12.4421 16.7014 12.1736C16.4329 11.9052 16.4329 11.4698 16.7014 11.2014L18.2777 9.625L16.7014 8.04864C16.4329 7.78015 16.4329 7.34485 16.7014 7.07636Z" fill="black"/>
</svg>
