<svg width="22" height="16" viewBox="0 0 22 16" fill="none" xmlns="http://www.w3.org/2000/svg">
<path d="M22 8C22 8 17.875 0.4375 11 0.4375C4.125 0.4375 0 8 0 8C0 8 4.125 15.5625 11 15.5625C17.875 15.5625 22 8 22 8ZM1.61246 8C1.69074 7.88066 1.77999 7.74806 1.88 7.60457C2.34047 6.9439 3.01993 6.06524 3.89415 5.19102C5.66642 3.41875 8.08585 1.8125 11 1.8125C13.9142 1.8125 16.3336 3.41875 18.1059 5.19102C18.9801 6.06524 19.6595 6.9439 20.12 7.60457C20.22 7.74806 20.3093 7.88066 20.3875 8C20.3093 8.11933 20.22 8.25194 20.12 8.39543C19.6595 9.0561 18.9801 9.93476 18.1059 10.809C16.3336 12.5813 13.9142 14.1875 11 14.1875C8.08585 14.1875 5.66642 12.5813 3.89415 10.809C3.01993 9.93476 2.34047 9.0561 1.88 8.39543C1.77999 8.25194 1.69074 8.11933 1.61246 8Z" fill="#262730"/>
<path d="M11 4.5625C9.10152 4.5625 7.5625 6.10152 7.5625 8C7.5625 9.89848 9.10152 11.4375 11 11.4375C12.8985 11.4375 14.4375 9.89848 14.4375 8C14.4375 6.10152 12.8985 4.5625 11 4.5625ZM6.1875 8C6.1875 5.34213 8.34213 3.1875 11 3.1875C13.6579 3.1875 15.8125 5.34213 15.8125 8C15.8125 10.6579 13.6579 12.8125 11 12.8125C8.34213 12.8125 6.1875 10.6579 6.1875 8Z" fill="#262730"/>
</svg>
